# xmcd
#
# Track frame offsets:
# 200
# 19615
# 45995
# 65900
# 87035
# 117035
# 145420
# 181700
# 202892
# 216662
#
# Disc length: 3105 seconds
#
#
# Revision: 2
# Processed by: cddbd v1.5.2PL0 Copyright (c) Steve Scherf et al.
# Submitted via: FreeRIP 2.945 
#
DISCID=870c1f0a
DTITLE=Crary, Dan - Guitar
DYEAR=1900
DGENRE=Country
TTITLE0=Cotton Patch Rag
TTITLE1=Stanley Brothers Medley
TTITLE2=Sweet Laree
TTITLE3=Memories Of Mozart
TTITLE4=The Green In The Blue Medley
TTITLE5=Tom and Jerry
TTITLE6=Bill Monroe Medley
TTITLE7=Sally Ann
TTITLE8=The Blackbird
TTITLE9=Foggy Mountain Special
EXTD=Dan Crary, guitar, with \nMark O'Connor, fiddle,\nSam Bush, mandolin,\nBela Fleck, banjo,\nT. Michael Coleman, bass,\nByron Berline, banjo, \nJohn Hickman, banjo,\nGeorge Hickman, bass, \nDavid Deas, dobro, and\nJoe Villegas, bass\n
EXTT0=
EXTT1=
EXTT2=
EXTT3=
EXTT4=
EXTT5=
EXTT6=
EXTT7=
EXTT8=
EXTT9=
PLAYORDER=
